# xmcd CD database file
#
# Track frame offsets:
#	150
#	12442
#	52717
#	67020
#	76850
#	121135
#	128075
#	134332
#	185770
#	232527
#
# Disc length: 3251 seconds
#
# Revision: 0
# Processed by: cddbd v1.4PL0 Copyright (c) Steve Scherf et al.
# Submitted via: CDex 1.50beta8
#
DISCID=770cb10a
DTITLE=Oreade Music - My music for Mediation
DYEAR=2001
DGENRE=New Age
TTITLE0=La Monotonia
TTITLE1=Peace
TTITLE2=Sundance
TTITLE3=Manutake Reprise
TTITLE4=Life
TTITLE5=The rythm of life
TTITLE6=Paysage du Languedoc
TTITLE7=Spanish rivers
TTITLE8=Meditation
TTITLE9=The Hermit
EXTD=YEAR: 2001
EXTT0=
EXTT1=
EXTT2=
EXTT3=
EXTT4=
EXTT5=
EXTT6=
EXTT7=
EXTT8=
EXTT9=
PLAYORDER=
